:SAMPLES-PER-SECOND 30
:FULLY-SPECIFIED
:DEGREES
720
root  4.45751 40.4791 -0.151491 61.0237 87.0372 57.7157
RightUpLeg  1.12527 -12.3615 -9.34847
RightLeg  10.0033 -11.7128 1.63367
RightFoot  -10.353 -0.111154 4.73044
RightToes  0.000482159 0.542163 -0.142577
Spine  4.40959 0.119976 -0.0071851
Spine1  1.65747 0.82402 -3.03014
HEad  3.66189 5.8137 -0.752122
LeftShoulder1  1.71081 -5.08328 -12.8499
LeftArm  -22.6447 20.8563 -8.01832
LeftForeArm  17.3211 -10.741 0.193165
LeftHand  -0.25398 0.0180481 5.50724
RightShoulder  0.882969 1.23312 11.5033
RightArm  -25.4038 -9.9462 1.70124
RightForeArm  -7.58988 13.9706 3.69247
RightHand  -2.48361 7.93299 -21.816
LeftUpLeg  3.05741 10.137 2.10482
LeftLeg  7.17242 20.1451 -3.34793
LeftFoot  -9.31236 0.152128 -5.58373
LeftToes  1.06246e-005 4.65854e-005 -8.18503e-006
721
root  4.22487 40.5645 -0.234247 96.8361 87.5473 92.9681
RightUpLeg  0.829571 -12.2975 -9.0114
RightLeg  9.19346 -13.6267 1.56312
RightFoot  -9.74453 -0.130929 4.65261
RightToes  0.000482159 0.542163 -0.142577
Spine  3.29327 -0.144553 -1.28791
Spine1  1.5233 0.258603 -1.94104
HEad  4.42298 5.25338 -0.580048
LeftShoulder1  1.49098 -4.65907 -11.0209
LeftArm  -23.5407 19.6343 -7.65313
LeftForeArm  18.0275 -11.1308 0.283636
LeftHand  -0.25398 0.0180481 5.50724
RightShoulder  0.683473 0.44081 10.0561
RightArm  -26.0865 -9.25272 1.37162
RightForeArm  -8.21733 12.9477 3.44379
RightHand  -2.48653 7.84952 -21.9712
LeftUpLeg  3.76245 5.28614 1.31204
LeftLeg  2.12732 23.5741 -5.03136
LeftFoot  -7.85689 0.159285 -3.67035
LeftToes  1.06246e-005 4.65854e-005 -8.18503e-006
722
root  4.00038 40.625 -0.322369 129.963 86.9765 125.561
RightUpLeg  0.352239 -12.2099 -8.78781
RightLeg  8.7858 -15.3407 1.48348
RightFoot  -9.38744 -0.137282 4.30537
RightToes  0.000482159 0.542163 -0.142577
Spine  2.46654 -0.373064 -2.65405
Spine1  1.26862 -0.216528 -0.77788
HEad  5.01617 4.56974 -0.237463
LeftShoulder1  1.3175 -4.33946 -9.3929
LeftArm  -24.3425 18.3472 -7.16501
LeftForeArm  18.6805 -11.3552 0.378469
LeftHand  -0.25398 0.0180481 5.50724
RightShoulder  0.561688 -0.0890189 9.07306
RightArm  -26.3647 -9.06167 1.0971
RightForeArm  -8.92064 12.2947 3.29412
RightHand  -2.5423 7.89471 -22.3705
LeftUpLeg  3.24254 4.95905 0.835085
LeftLeg  0.518927 22.5318 -5.04407
LeftFoot  -6.58449 0.16537 -3.0062
LeftToes  1.06246e-005 4.65854e-005 -8.18503e-006
723
root  3.78867 40.6621 -0.412271 145.3 86.1087 140.491
RightUpLeg  -0.149031 -12.0723 -8.65713
RightLeg  8.63489 -16.573 1.44685
RightFoot  -9.19424 -0.141197 4.19729
RightToes  0.000482159 0.542163 -0.142577
Spine  2.07578 -0.457698 -3.74466
Spine1  0.771668 -0.461017 0.135683
HEad  5.52666 3.79217 0.229893
LeftShoulder1  1.18981 -4.13657 -8.02528
LeftArm  -24.7273 16.9672 -6.38637
LeftForeArm  19.093 -11.2001 0.453952
LeftHand  -0.25398 0.0180481 5.50724
RightShoulder  0.487673 -0.420177 8.35494
RightArm  -26.1504 -9.27129 0.935666
RightForeArm  -9.02767 11.6616 3.16605
RightHand  -2.72581 8.33575 -23.179
LeftUpLeg  2.28626 4.77373 0.711488
LeftLeg  0.769976 21.451 -4.91197
LeftFoot  -6.19266 0.1728 -3.01622
LeftToes  1.06246e-005 4.65854e-005 -8.18503e-006
724
root  3.59746 40.6773 -0.518585 151.898 85.6759 146.982
RightUpLeg  -0.446616 -11.9302 -8.5701
RightLeg  8.61621 -17.3348 1.44206
RightFoot  -9.05868 -0.146608 4.26844
RightToes  0.000482159 0.542163 -0.142577
Spine  2.15495 -0.329883 -4.23766
Spine1  0.233729 -0.402099 0.600186
HEad  5.83755 3.06199 0.597009
LeftShoulder1  1.07102 -3.91303 -6.75626
LeftArm  -24.8966 15.6906 -5.63555
LeftForeArm  18.9302 -10.6852 0.556647
LeftHand  -0.25398 0.0180481 5.50724
RightShoulder  0.423069 -0.727138 7.70491
RightArm  -25.6167 -9.35354 0.987403
RightForeArm  -8.7087 10.543 2.97821
RightHand  -3.12393 9.30561 -24.7368
LeftUpLeg  1.49966 4.86861 0.792682
LeftLeg  1.47347 20.6759 -4.83183
LeftFoot  -6.31282 0.149952 -2.54959
LeftToes  1.06246e-005 4.65854e-005 -8.18503e-006
725
root  3.44439 40.6845 -0.651917 153.971 85.8061 149.333
RightUpLeg  -0.305363 -11.8265 -8.62299
RightLeg  8.4476 -17.5626 1.59599
RightFoot  -8.79382 -0.152808 4.18599
RightToes  0.000482159 0.542163 -0.142577
Spine  2.45498 -0.0415154 -4.17138
Spine1  0.0685248 -0.0956914 0.527338
HEad  5.75418 2.52907 0.730082
LeftShoulder1  0.940049 -3.58522 -5.4301
LeftArm  -25.2634 14.7459 -5.16151
LeftForeArm  17.7851 -9.82647 0.791295
LeftHand  -0.25398 0.0180481 5.50724
RightShoulder  0.37907 -0.932771 7.15511
RightArm  -24.9993 -9.01717 1.14413
RightForeArm  -8.43275 8.63572 2.68745
RightHand  -3.72598 10.7051 -26.8403
LeftUpLeg  1.20512 4.971 0.82466
LeftLeg  2.12031 20.6503 -4.68765
LeftFoot  -6.47905 0.116398 -1.82513
LeftToes  1.06246e-005 4.65854e-005 -8.18503e-006
726
root  3.34771 40.6905 -0.811519 153.085 86.2958 148.928
RightUpLeg  0.216526 -11.7171 -8.85582
RightLeg  7.95346 -17.1612 1.9916
RightFoot  -8.30322 -0.16888 4.23043
RightToes  0.000482159 0.542163 -0.142577
Spine  2.6082 0.263653 -3.80468
Spine1  0.383761 0.289017 0.104879
HEad  5.42873 2.27382 0.629409
LeftShoulder1  0.804363 -3.13135 -4.14688
LeftArm  -25.8142 14.1412 -4.82259
LeftForeArm  15.4808 -8.56197 1.14908
LeftHand  -0.25398 0.0180481 5.50724
RightShoulder  0.37168 -0.920938 6.75735
RightArm  -24.55 -8.38139 1.29016
RightForeArm  -8.43251 6.21573 2.32179
RightHand  -4.38622 12.2027 -28.8064
LeftUpLeg  1.37608 4.99574 0.745048
LeftLeg  2.65384 21.1319 -4.45517
LeftFoot  -6.73484 0.102309 -1.54018
LeftToes  1.06246e-005 4.65854e-005 -8.18503e-006
727
root  3.3131 40.6934 -0.99066 151.71 86.8477 147.939
RightUpLeg  0.817173 -11.4814 -9.11317
RightLeg  7.23697 -16.7324 2.45554
RightFoot  -7.66349 -0.19847 4.55578
RightToes  0.000482159 0.542163 -0.142577
Spine  2.48576 0.49394 -3.42101
Spine1  0.811075 0.585378 -0.192717
HEad  5.29896 2.23655 0.325308
LeftShoulder1  0.676753 -2.54004 -3.0985
LeftArm  -26.0403 13.6929 -4.45675
LeftForeArm  12.2948 -6.94013 1.45072
LeftHand  -0.25398 0.0180481 5.50724
RightShoulder  0.375131 -0.827988 6.33974
RightArm  -24.4228 -7.77972 1.44566
RightForeArm  -8.85963 4.00119 1.98063
RightHand  -4.90701 13.3779 -30.1296
LeftUpLeg  1.67616 4.95058 0.618926
LeftLeg  3.01385 21.7073 -4.22143
LeftFoot  -7.19568 0.0970902 -1.48684
LeftToes  1.06246e-005 4.65854e-005 -8.18503e-006
728
root  3.33395 40.6898 -1.18569 152.816 87.2254 149.209
RightUpLeg  1.30825 -11.1601 -9.28171
RightLeg  6.50635 -16.9858 2.81448
RightFoot  -7.05498 -0.222628 4.66881
RightToes  0.000482159 0.542163 -0.142577
Spine  2.21902 0.651513 -3.18073
Spine1  0.987834 0.74013 -0.0763599
HEad  5.56108 2.22224 -0.0553538
LeftShoulder1  0.56369 -1.90185 -2.22091
LeftArm  -25.5939 13.2818 -4.16606
LeftForeArm  9.05301 -5.19641 1.51539
LeftHand  -0.25398 0.0180481 5.50724
RightShoulder  0.353069 -0.886709 5.74036
RightArm  -24.4645 -7.5377 1.57823
RightForeArm  -9.80724 2.53586 1.76374
RightHand  -5.14263 13.8884 -30.7001
LeftUpLeg  1.74901 4.80576 0.451575
LeftLeg  3.37764 22.1795 -3.92849
LeftFoot  -7.75997 0.0827411 -1.15105
LeftToes  1.06246e-005 4.65854e-005 -8.18503e-006
729
root  3.39842 40.6716 -1.40139 156.8 87.3255 153.229
RightUpLeg  1.75599 -11.037 -9.49921
RightLeg  5.88687 -17.3705 3.12894
RightFoot  -6.62507 -0.239383 4.71137
RightToes  0.000482159 0.542163 -0.142577
Spine  1.96345 0.752994 -3.01971
Spine1  0.944472 0.814041 0.181442
HEad  5.97674 2.08912 -0.27144
LeftShoulder1  0.474234 -1.42026 -1.31686
LeftArm  -24.6393 12.9928 -3.98409
LeftForeArm  6.74937 -3.65326 1.35471
LeftHand  -0.25398 0.0180481 5.50724
RightShoulder  0.304942 -1.14446 5.10395
RightArm  -24.4206 -7.77884 1.54045
RightForeArm  -10.9555 1.8473 1.68841
RightHand  -5.07044 13.6745 -30.6106
LeftUpLeg  1.54948 4.60023 0.190102
LeftLeg  4.09844 22.4335 -3.44854
LeftFoot  -8.423 0.0678558 -0.675584
LeftToes  1.06246e-005 4.65854e-005 -8.18503e-006
730
root  3.49108 40.6295 -1.64859 160.905 87.2397 157.413
RightUpLeg  2.21204 -11.2243 -9.92206
RightLeg  5.58525 -17.0317 3.38874
RightFoot  -6.41149 -0.280606 5.49985
RightToes  0.000482159 0.542163 -0.142577
Spine  1.81729 0.802354 -2.75394
Spine1  0.936592 0.879489 0.151114
HEad  6.19839 1.96235 -0.258666
LeftShoulder1  0.419643 -1.18038 -0.553881
LeftArm  -23.6371 12.9415 -3.58762
LeftForeArm  5.74055 -2.62435 1.13707
LeftHand  -0.25398 0.0180481 5.50724
RightShoulder  0.254666 -1.47278 4.67061
RightArm  -24.2956 -8.39854 1.28694
RightForeArm  -11.856 1.74913 1.68738
RightHand  -4.82923 13.0928 -30.1042
LeftUpLeg  1.33115 4.57248 -0.162116
LeftLeg  5.203 22.2957 -2.82705
LeftFoot  -9.38362 0.0644635 -0.486413
LeftToes  1.06246e-005 4.65854e-005 -8.18503e-006
731
root  3.59575 40.5648 -1.93614 162.984 87.1473 159.718
RightUpLeg  2.43355 -11.7117 -10.5062
RightLeg  6.16543 -16.3908 3.25833
RightFoot  -6.43441 -0.323904 6.53127
RightToes  0.000482159 0.542163 -0.142577
Spine  1.867 0.824201 -2.37423
Spine1  1.11635 0.944006 -0.133255
HEad  6.07018 2.14469 -0.26195
LeftShoulder1  0.397791 -1.00167 -0.40413
LeftArm  -23.0619 13.0274 -2.7265
LeftForeArm  5.40652 -2.29777 1.02245
LeftHand  -0.25398 0.0180481 5.50724
RightShoulder  0.217988 -1.73768 4.4466
RightArm  -24.2321 -9.25006 0.938464
RightForeArm  -12.6604 2.12983 1.72522
RightHand  -4.62025 12.6287 -29.5771
LeftUpLeg  1.32492 4.73009 -0.586693
LeftLeg  6.36429 21.9213 -2.25343
LeftFoot  -10.675 0.0674752 -0.611813
LeftToes  1.06246e-005 4.65854e-005 -8.18503e-006
